# xmcd CD database file
#
# Track frame offsets:
#	182
#	9535
#	23940
#	34500
#	46730
#	57835
#	70817
#	81887
#	96100
#	107297
#	121052
#	133757
#	144620
#	154377
#
# Disc length: 2177 seconds
#
# Revision: 2
# Processed by: cddbd v1.5.2PL0 Copyright (c) Steve Scherf et al.
# Submitted via: CDex 1.70beta2
#
DISCID=af087f0e
DTITLE=J B Lenoir - Chicago Blues cd2
DYEAR=1991
DGENRE=Blues
TTITLE0=Mama your Daughter's going to miss me
TTITLE1=We can't go on this way
TTITLE2=Give me one more shot
TTITLE3=When I am drinking
TTITLE4=J.B.'s Rock
TTITLE5=If you love me
TTITLE6=Low down dirty shame
TTITLE7=Man, watch your woman
TTITLE8=Mama, talk to your daughter
TTITLE9=Sitting down thinking
TTITLE10=Daddy talk to your son
TTITLE11=I don't know
TTITLE12=Good looking Woman
TTITLE13=Voodoo Boogie
EXTD=YEAR: 1991
EXTT0=
EXTT1=
EXTT2=
EXTT3=
EXTT4=
EXTT5=
EXTT6=
EXTT7=
EXTT8=
EXTT9=
EXTT10=
EXTT11=
EXTT12=
EXTT13=
PLAYORDER=
